<svg width="433" height="399" viewBox="0 0 433 399" fill="none" xmlns="http://www.w3.org/2000/svg">
<path d="M182.615 244.063V206.052H149.78V37.7892H182.615V0H108.173V244.063H182.615Z" fill="white"/>
<path d="M323.173 122.032C323.173 35.3518 283.461 0 216.327 0V37.8416C248.79 37.8416 281.422 56.7667 281.422 122.032C281.422 187.296 248.79 206.051 216.327 206.051V244.233C263.066 244.233 323.173 222.988 323.173 122.032Z" fill="white"/>
<path d="M11.9 348.3C12.3 343.1 16.5 337.5 23.8 337.5C31.8 337.5 35.6 342.6 35.8 348.3H11.9ZM37.1 361C35.5 365.8 31.9 369.5 24.9 369.5C17.7 369.5 11.9 364.2 11.6 356.8H47.2C47.3 356.6 47.5 355 47.5 353.1C47.5 337.7 38.7 327.8 23.7 327.8C11.4 327.8 0 338 0 353.4C0 369.9 11.7 379.5 24.9 379.5C36.6 379.5 44.3 372.6 46.9 364.1L37.1 361Z" fill="white"/>
<path d="M51.5016 378H64.8016C65.7016 376.5 74.8016 363.2 75.8016 361.7L87.1016 378H100.702L83.0016 353.2L100.102 329.3H86.9016L76.3016 344.9C75.4016 343.5 66.5016 330.8 65.6016 329.3H51.8016L69.2016 353.4L51.5016 378Z" fill="white"/>
<path d="M128.906 338.5C136.306 338.5 139.606 343.3 140.706 347.6L151.106 343.8C149.106 336 141.906 327.8 128.806 327.8C114.806 327.8 103.906 338.6 103.906 353.6C103.906 368.4 114.806 379.5 129.106 379.5C141.906 379.5 149.206 371.2 151.506 363.6L141.306 359.9C140.206 363.6 136.706 368.9 129.106 368.9C121.806 368.9 115.506 363.4 115.506 353.6C115.506 343.8 121.806 338.5 128.906 338.5Z" fill="white"/>
<path d="M173.408 349.4C173.608 343.2 177.108 338.4 183.508 338.4C190.808 338.4 193.508 343.2 193.508 349.2V378H205.108V347.2C205.108 336.5 199.308 327.9 187.308 327.9C182.208 327.9 176.708 329.7 173.408 334V305.6H161.808V378H173.408V349.4Z" fill="white"/>
<path d="M216.23 364.8C216.23 372.5 222.53 379.5 232.73 379.5C240.63 379.5 245.43 375.5 247.73 371.8C247.73 375.7 248.13 377.7 248.23 378H259.03C258.93 377.5 258.43 374.6 258.43 370.2V346C258.43 336.3 252.73 327.8 237.73 327.8C225.73 327.8 218.13 335.3 217.23 343.7L227.83 346.1C228.33 341.2 231.73 337.3 237.83 337.3C244.23 337.3 247.03 340.6 247.03 344.7C247.03 346.4 246.23 347.8 243.43 348.2L230.93 350.1C222.63 351.3 216.23 356.1 216.23 364.8ZM234.93 370.4C230.33 370.4 227.83 367.4 227.83 364.1C227.83 360.1 230.73 358.1 234.33 357.5L247.03 355.6V357.8C247.03 367.3 241.43 370.4 234.93 370.4Z" fill="white"/>
<path d="M284.052 349.9C284.052 343.5 287.552 338.4 294.152 338.4C301.452 338.4 304.152 343.2 304.152 349.2V378H315.752V347.2C315.752 336.5 310.052 327.9 298.152 327.9C292.752 327.9 286.952 330.2 283.752 335.8V329.3H272.452V378H284.052V349.9Z" fill="white"/>
<path d="M326.374 380.7C327.674 390.5 336.674 398.5 349.574 398.5C367.874 398.5 374.574 386.4 374.574 373.4V329.3H363.374V335.5C361.274 331.5 356.574 328.4 348.974 328.4C335.574 328.4 326.474 339.1 326.474 352.1C326.474 365.8 335.974 375.8 348.974 375.8C356.074 375.8 360.974 372.5 363.074 368.7V373.8C363.074 383.7 358.474 388.4 349.274 388.4C342.574 388.4 337.874 383.9 337.074 377.9L326.374 380.7ZM350.874 365.9C343.274 365.9 338.174 360.6 338.174 352.1C338.174 343.8 343.474 338.4 350.874 338.4C358.074 338.4 363.374 343.8 363.374 352.1C363.374 360.5 358.274 365.9 350.874 365.9Z" fill="white"/>
<path d="M396.861 348.3C397.261 343.1 401.461 337.5 408.761 337.5C416.761 337.5 420.561 342.6 420.761 348.3H396.861ZM422.061 361C420.461 365.8 416.861 369.5 409.861 369.5C402.661 369.5 396.861 364.2 396.561 356.8H432.161C432.261 356.6 432.461 355 432.461 353.1C432.461 337.7 423.661 327.8 408.661 327.8C396.361 327.8 384.961 338 384.961 353.4C384.961 369.9 396.661 379.5 409.861 379.5C421.561 379.5 429.261 372.6 431.861 364.1L422.061 361Z" fill="white"/>
</svg>
